<svg width="35" height="35" viewBox="0 0 35 35" fill="none" xmlns="http://www.w3.org/2000/svg">
<path d="M22.9583 20.5V23.7083L25.2917 25.1667M22.9583 3V8.83333M30.25 11.0208V8.83333C30.25 8.05978 29.9427 7.31792 29.3957 6.77094C28.8487 6.22396 28.1069 5.91667 27.3333 5.91667H6.91667C6.14312 5.91667 5.40125 6.22396 4.85427 6.77094C4.30729 7.31792 4 8.05978 4 8.83333V29.25C4 30.0235 4.30729 30.7654 4.85427 31.3124C5.40125 31.8594 6.14312 32.1667 6.91667 32.1667H12.0208M4 14.6667H11.2917M11.2917 3V8.83333M31.7083 23.4167C31.7083 28.2492 27.7908 32.1667 22.9583 32.1667C18.1258 32.1667 14.2083 28.2492 14.2083 23.4167C14.2083 18.5842 18.1258 14.6667 22.9583 14.6667C27.7908 14.6667 31.7083 18.5842 31.7083 23.4167Z" stroke="white" stroke-width="2" stroke-linecap="round" stroke-linejoin="round"/>
</svg>
