<svg width="30" height="30" viewBox="0 0 30 30" fill="none" xmlns="http://www.w3.org/2000/svg">
<path d="M9.25 26.3275V24.25C9.25 23.587 9.51339 22.9511 9.98223 22.4822C10.4511 22.0134 11.087 21.75 11.75 21.75H19.25C19.913 21.75 20.5489 22.0134 21.0178 22.4822C21.4866 22.9511 21.75 23.587 21.75 24.25V26.3275M28 15.5C28 22.4036 22.4036 28 15.5 28C8.59644 28 3 22.4036 3 15.5C3 8.59644 8.59644 3 15.5 3C22.4036 3 28 8.59644 28 15.5ZM19.25 13C19.25 15.0711 17.5711 16.75 15.5 16.75C13.4289 16.75 11.75 15.0711 11.75 13C11.75 10.9289 13.4289 9.25 15.5 9.25C17.5711 9.25 19.25 10.9289 19.25 13Z" stroke="white" stroke-width="2" stroke-linecap="round" stroke-linejoin="round"/>
</svg>
