<svg width="35" height="35" viewBox="0 0 35 35" fill="none" xmlns="http://www.w3.org/2000/svg">
<path d="M23.3333 14.5833C23.3333 16.1304 22.7188 17.6142 21.6248 18.7081C20.5308 19.8021 19.0471 20.4167 17.5 20.4167C15.9529 20.4167 14.4692 19.8021 13.3752 18.7081C12.2812 17.6142 11.6667 16.1304 11.6667 14.5833M4.52521 8.79957H30.4748M4.95833 7.9727C4.57969 8.47756 4.375 9.09162 4.375 9.7227V29.1667C4.375 29.9402 4.68229 30.6821 5.22927 31.229C5.77625 31.776 6.51812 32.0833 7.29167 32.0833H27.7083C28.4819 32.0833 29.2237 31.776 29.7707 31.229C30.3177 30.6821 30.625 29.9402 30.625 29.1667V9.7227C30.625 9.09162 30.4203 8.47756 30.0417 7.9727L27.125 4.08332C26.8533 3.72108 26.501 3.42707 26.096 3.22458C25.691 3.02208 25.2445 2.91666 24.7917 2.91666H10.2083C9.75554 2.91666 9.30896 3.02208 8.90396 3.22458C8.49897 3.42707 8.14668 3.72108 7.875 4.08332L4.95833 7.9727Z" stroke="white" stroke-width="2" stroke-linecap="round" stroke-linejoin="round"/>
</svg>
