<svg width="36" height="36" viewBox="0 0 36 36" fill="none" xmlns="http://www.w3.org/2000/svg">
<path d="M23.6667 31.375V28.4583C23.6667 26.9112 23.0521 25.4275 21.9581 24.3335C20.8642 23.2396 19.3804 22.625 17.8333 22.625H9.08333C7.53624 22.625 6.05251 23.2396 4.95854 24.3335C3.86458 25.4275 3.25 26.9112 3.25 28.4583V31.375M23.6667 5.31167C24.9176 5.63596 26.0254 6.36643 26.8162 7.38842C27.607 8.41042 28.0361 9.66609 28.0361 10.9583C28.0361 12.2506 27.607 13.5062 26.8162 14.5282C26.0254 15.5502 24.9176 16.2807 23.6667 16.605M32.4167 31.375V28.4583C32.4157 27.1659 31.9855 25.9103 31.1937 24.8888C30.4018 23.8673 29.2931 23.1377 28.0417 22.8146M19.2917 10.9583C19.2917 14.18 16.68 16.7917 13.4583 16.7917C10.2367 16.7917 7.625 14.18 7.625 10.9583C7.625 7.73667 10.2367 5.125 13.4583 5.125C16.68 5.125 19.2917 7.73667 19.2917 10.9583Z" stroke="white" stroke-width="2" stroke-linecap="round" stroke-linejoin="round"/>
</svg>
