<svg width="35" height="35" viewBox="0 0 35 35" fill="none" xmlns="http://www.w3.org/2000/svg">
<path d="M2.91675 30.625C2.91662 28.3796 3.56444 26.1819 4.78246 24.2957C6.00048 22.4094 7.73694 20.9146 9.78346 19.9909C11.83 19.0671 14.0996 18.7534 16.3199 19.0877C18.5403 19.4219 20.617 20.3897 22.3009 21.875M23.3334 27.7083L26.2501 30.625L32.0834 24.7917M21.8751 11.6667C21.8751 15.6937 18.6105 18.9583 14.5834 18.9583C10.5563 18.9583 7.29175 15.6937 7.29175 11.6667C7.29175 7.63959 10.5563 4.375 14.5834 4.375C18.6105 4.375 21.8751 7.63959 21.8751 11.6667Z" stroke="white" stroke-width="2" stroke-linecap="round" stroke-linejoin="round"/>
</svg>
